<svg version="1.1" id="Layer_1" xmlns="http://www.w3.org/2000/svg" xmlns:xlink="http://www.w3.org/1999/xlink" x="0px" y="0px"
	 width="100%" viewBox="0 0 1080 1080" enable-background="new 0 0 1080 1080" xml:space="preserve">
<path fill="#000000" opacity="1.000000" stroke="none" 
	d="
M605.000000,1081.000000 
	C403.356537,1081.000000 202.213089,1081.000000 1.034820,1081.000000 
	C1.034820,721.064758 1.034820,361.129517 1.034820,1.097133 
	C360.893707,1.097133 720.787415,1.097133 1080.840576,1.097133 
	C1080.840576,360.999939 1080.840576,720.999939 1080.840576,1081.000000 
	C922.462402,1081.000000 763.981201,1081.000000 605.000000,1081.000000 
M927.985046,480.506073 
	C913.872559,468.974487 897.248840,463.807800 879.474182,463.204773 
	C856.001587,462.408447 832.488770,462.793060 808.993225,462.687683 
	C808.362915,462.684845 807.731689,462.884827 807.117798,462.987396 
	C807.117798,520.035095 807.117798,576.916870 807.117798,634.002808 
	C827.594910,634.002808 847.744751,634.191589 867.888000,633.910461 
	C876.015198,633.796997 884.213013,633.182068 892.232483,631.888977 
	C923.302368,626.879333 944.184387,607.131104 951.106140,576.471008 
	C955.427368,557.330078 955.277283,538.102966 950.896301,519.004089 
	C947.463745,504.040070 940.457275,491.013733 927.985046,480.506073 
M394.248993,516.489258 
	C394.248993,519.920349 394.248993,523.351440 394.248993,526.761475 
	C368.451355,526.761475 343.218750,526.761475 317.695923,526.761475 
	C317.695923,505.367096 317.695923,484.262177 317.695923,462.915253 
	C306.315247,462.915253 295.226532,462.915253 284.084167,462.915253 
	C284.084167,520.000000 284.084167,576.873352 284.084167,633.655151 
	C295.440674,633.655151 306.496552,633.655151 317.998657,633.655151 
	C317.998657,607.599121 317.998657,581.888428 317.998657,556.319092 
	C343.686920,556.319092 368.918610,556.319092 394.398651,556.319092 
	C394.398651,582.267456 394.398651,607.882935 394.398651,633.749634 
	C405.703979,633.749634 416.757202,633.749634 427.814453,633.749634 
	C427.814453,576.661133 427.814453,519.802185 427.814453,462.907471 
	C416.558350,462.907471 405.612640,462.907471 394.248993,462.907471 
	C394.248993,480.591339 394.248993,498.040894 394.248993,516.489258 
M477.049896,564.442871 
	C469.086914,587.503174 461.123901,610.563416 453.087860,633.835205 
	C464.903900,633.835205 476.349976,633.835205 488.004089,633.835205 
	C491.779510,622.215820 495.653564,610.725525 499.192535,599.132935 
	C500.232269,595.727112 501.684875,594.467896 505.402679,594.516357 
	C522.728882,594.742371 540.059753,594.616516 557.388916,594.616516 
	C566.377686,594.616516 566.358398,594.622803 569.112976,603.046082 
	C572.496155,613.391541 575.915649,623.725159 579.213989,633.743469 
	C591.423279,633.743469 602.994019,633.743469 614.606079,633.743469 
	C614.527649,633.160889 614.537292,632.822083 614.433899,632.522400 
	C595.259216,576.933105 576.060913,521.352051 556.944458,465.742767 
	C556.082520,463.235413 554.788696,462.581665 552.261719,462.609650 
	C540.266052,462.742462 528.265869,462.796936 516.272461,462.584778 
	C513.006409,462.527039 511.802368,463.659210 510.774689,466.664612 
	C499.703857,499.040344 488.451752,531.354065 477.049896,564.442871 
M732.834290,491.568726 
	C729.886902,483.096832 727.023682,474.593719 723.908081,466.184113 
	C723.396240,464.802368 721.792114,462.840424 720.664612,462.821411 
	C706.883240,462.589569 693.096680,462.670654 679.206299,462.670654 
	C659.440247,519.898376 639.800293,576.760681 620.060547,633.912109 
	C632.053833,633.912109 643.372498,633.912109 654.970703,633.912109 
	C658.770081,622.234558 662.672058,610.582153 666.306458,598.846863 
	C667.295410,595.653687 668.682007,594.475708 672.209351,594.515747 
	C691.035522,594.729553 709.866333,594.716125 728.693115,594.529053 
	C732.283325,594.493347 733.901917,595.511902 734.965454,599.023926 
	C738.512329,610.736023 742.450684,622.329590 746.197266,633.840576 
	C758.291931,633.840576 769.918152,633.840576 781.919617,633.840576 
	C765.562256,586.498230 749.295227,539.417358 732.834290,491.568726 
M126.315323,512.226196 
	C127.598686,533.709167 139.323166,547.160950 158.976288,554.327698 
	C164.111176,556.200195 169.463669,557.485779 174.737488,558.965088 
	C185.432007,561.964783 196.332397,564.370117 206.782852,568.055603 
	C214.968842,570.942444 217.825638,578.114624 217.483276,586.551147 
	C217.140411,595.000488 213.323318,601.258728 205.376556,604.376831 
	C201.873276,605.751404 198.018860,606.654968 194.266739,606.900818 
	C173.837646,608.239441 157.141220,600.962830 144.640549,584.575989 
	C142.945724,582.354248 141.238037,580.411011 138.779449,583.324036 
	C132.800262,590.408569 126.991577,597.637024 121.100037,604.824768 
	C127.747360,615.621033 136.785355,622.977966 147.788422,627.983887 
	C167.722855,637.053040 188.627884,638.552063 209.849930,634.605042 
	C225.504135,631.693542 238.617371,624.234192 246.343475,609.468323 
	C261.815430,579.898865 249.213699,547.483887 217.936478,536.356995 
	C215.124786,535.356750 212.225998,534.564331 209.321350,533.868774 
	C197.205307,530.967224 184.913971,528.669128 172.992950,525.121399 
	C162.996246,522.146362 159.148544,515.824219 159.677444,506.577240 
	C160.131271,498.642334 164.996460,493.024414 174.604340,490.892548 
	C192.817078,486.851440 209.669449,489.540436 223.968246,502.512115 
	C226.037979,504.389709 228.006424,505.749115 230.173172,502.803802 
	C235.371338,495.737854 240.524750,488.638947 245.738266,481.495758 
	C239.438080,474.341888 232.108734,469.192841 223.548553,466.096375 
	C202.541763,458.497589 181.112656,457.680786 159.826721,464.369507 
	C137.493225,471.387390 125.837776,488.305206 126.315323,512.226196 
z"/>
<path fill="#FDFDFD" opacity="1.000000" stroke="none" 
	d="
M928.255859,480.736206 
	C940.457275,491.013733 947.463745,504.040070 950.896301,519.004089 
	C955.277283,538.102966 955.427368,557.330078 951.106140,576.471008 
	C944.184387,607.131104 923.302368,626.879333 892.232483,631.888977 
	C884.213013,633.182068 876.015198,633.796997 867.888000,633.910461 
	C847.744751,634.191589 827.594910,634.002808 807.117798,634.002808 
	C807.117798,576.916870 807.117798,520.035095 807.117798,462.987396 
	C807.731689,462.884827 808.362915,462.684845 808.993225,462.687683 
	C832.488770,462.793060 856.001587,462.408447 879.474182,463.204773 
	C897.248840,463.807800 913.872559,468.974487 928.255859,480.736206 
M877.936340,604.786865 
	C879.244263,604.537659 880.552856,604.291870 881.859985,604.038818 
	C899.659485,600.593079 911.596436,590.697632 916.179810,572.764465 
	C920.216125,556.971985 920.179993,541.086426 916.583374,525.271606 
	C913.019653,509.601746 903.673340,498.832825 888.086548,494.143280 
	C872.657898,489.501343 856.805786,491.499481 841.170410,491.153931 
	C841.170410,529.554199 841.170410,567.423706 841.170410,604.884094 
	C853.386414,604.884094 865.209106,604.884094 877.936340,604.786865 
z"/>
<path fill="#FDFDFD" opacity="1.000000" stroke="none" 
	d="
M394.248993,515.989868 
	C394.248993,498.040894 394.248993,480.591339 394.248993,462.907471 
	C405.612640,462.907471 416.558350,462.907471 427.814453,462.907471 
	C427.814453,519.802185 427.814453,576.661133 427.814453,633.749634 
	C416.757202,633.749634 405.703979,633.749634 394.398651,633.749634 
	C394.398651,607.882935 394.398651,582.267456 394.398651,556.319092 
	C368.918610,556.319092 343.686920,556.319092 317.998657,556.319092 
	C317.998657,581.888428 317.998657,607.599121 317.998657,633.655151 
	C306.496552,633.655151 295.440674,633.655151 284.084167,633.655151 
	C284.084167,576.873352 284.084167,520.000000 284.084167,462.915253 
	C295.226532,462.915253 306.315247,462.915253 317.695923,462.915253 
	C317.695923,484.262177 317.695923,505.367096 317.695923,526.761475 
	C343.218750,526.761475 368.451355,526.761475 394.248993,526.761475 
	C394.248993,523.351440 394.248993,519.920349 394.248993,515.989868 
z"/>
<path fill="#FDFDFD" opacity="1.000000" stroke="none" 
	d="
M477.149567,564.063782 
	C488.451752,531.354065 499.703857,499.040344 510.774689,466.664612 
	C511.802368,463.659210 513.006409,462.527039 516.272461,462.584778 
	C528.265869,462.796936 540.266052,462.742462 552.261719,462.609650 
	C554.788696,462.581665 556.082520,463.235413 556.944458,465.742767 
	C576.060913,521.352051 595.259216,576.933105 614.433899,632.522400 
	C614.537292,632.822083 614.527649,633.160889 614.606079,633.743469 
	C602.994019,633.743469 591.423279,633.743469 579.213989,633.743469 
	C575.915649,623.725159 572.496155,613.391541 569.112976,603.046082 
	C566.358398,594.622803 566.377686,594.616516 557.388916,594.616516 
	C540.059753,594.616516 522.728882,594.742371 505.402679,594.516357 
	C501.684875,594.467896 500.232269,595.727112 499.192535,599.132935 
	C495.653564,610.725525 491.779510,622.215820 488.004089,633.835205 
	C476.349976,633.835205 464.903900,633.835205 453.087860,633.835205 
	C461.123901,610.563416 469.086914,587.503174 477.149567,564.063782 
M521.706360,530.198242 
	C517.831360,542.016846 513.956299,553.835449 510.055359,565.733154 
	C525.794739,565.733154 541.178406,565.733154 556.845337,565.733154 
	C549.735779,543.929993 542.756897,522.455933 535.670044,501.017517 
	C535.336487,500.008270 534.042969,499.316284 533.196533,498.476562 
	C532.463989,499.470123 531.420776,500.359680 531.047791,501.473633 
	C527.935852,510.768036 524.947327,520.103760 521.706360,530.198242 
z"/>
<path fill="#FDFDFD" opacity="1.000000" stroke="none" 
	d="
M732.931274,491.952637 
	C749.295227,539.417358 765.562256,586.498230 781.919617,633.840576 
	C769.918152,633.840576 758.291931,633.840576 746.197266,633.840576 
	C742.450684,622.329590 738.512329,610.736023 734.965454,599.023926 
	C733.901917,595.511902 732.283325,594.493347 728.693115,594.529053 
	C709.866333,594.716125 691.035522,594.729553 672.209351,594.515747 
	C668.682007,594.475708 667.295410,595.653687 666.306458,598.846863 
	C662.672058,610.582153 658.770081,622.234558 654.970703,633.912109 
	C643.372498,633.912109 632.053833,633.912109 620.060547,633.912109 
	C639.800293,576.760681 659.440247,519.898376 679.206299,462.670654 
	C693.096680,462.670654 706.883240,462.589569 720.664612,462.821411 
	C721.792114,462.840424 723.396240,464.802368 723.908081,466.184113 
	C727.023682,474.593719 729.886902,483.096832 732.931274,491.952637 
M680.591553,555.031677 
	C679.445862,558.582275 678.300171,562.132812 677.091431,565.878723 
	C692.907654,565.878723 708.214294,565.878723 723.556213,565.878723 
	C723.556213,565.419373 723.640381,565.065613 723.544189,564.770630 
	C716.644348,543.602600 709.748840,522.433044 702.762878,501.293335 
	C702.406860,500.215790 701.263733,499.398315 700.487061,498.459747 
	C699.641418,499.526672 698.409302,500.465912 698.008362,501.679718 
	C692.223572,519.191833 686.550598,536.740845 680.591553,555.031677 
z"/>
<path fill="#FDFDFD" opacity="1.000000" stroke="none" 
	d="
M126.296036,511.766144 
	C125.837776,488.305206 137.493225,471.387390 159.826721,464.369507 
	C181.112656,457.680786 202.541763,458.497589 223.548553,466.096375 
	C232.108734,469.192841 239.438080,474.341888 245.738266,481.495758 
	C240.524750,488.638947 235.371338,495.737854 230.173172,502.803802 
	C228.006424,505.749115 226.037979,504.389709 223.968246,502.512115 
	C209.669449,489.540436 192.817078,486.851440 174.604340,490.892548 
	C164.996460,493.024414 160.131271,498.642334 159.677444,506.577240 
	C159.148544,515.824219 162.996246,522.146362 172.992950,525.121399 
	C184.913971,528.669128 197.205307,530.967224 209.321350,533.868774 
	C212.225998,534.564331 215.124786,535.356750 217.936478,536.356995 
	C249.213699,547.483887 261.815430,579.898865 246.343475,609.468323 
	C238.617371,624.234192 225.504135,631.693542 209.849930,634.605042 
	C188.627884,638.552063 167.722855,637.053040 147.788422,627.983887 
	C136.785355,622.977966 127.747360,615.621033 121.100037,604.824768 
	C126.991577,597.637024 132.800262,590.408569 138.779449,583.324036 
	C141.238037,580.411011 142.945724,582.354248 144.640549,584.575989 
	C157.141220,600.962830 173.837646,608.239441 194.266739,606.900818 
	C198.018860,606.654968 201.873276,605.751404 205.376556,604.376831 
	C213.323318,601.258728 217.140411,595.000488 217.483276,586.551147 
	C217.825638,578.114624 214.968842,570.942444 206.782852,568.055603 
	C196.332397,564.370117 185.432007,561.964783 174.737488,558.965088 
	C169.463669,557.485779 164.111176,556.200195 158.976288,554.327698 
	C139.323166,547.160950 127.598686,533.709167 126.296036,511.766144 
z"/>
<path fill="#010101" opacity="1.000000" stroke="none" 
	d="
M877.484070,604.835449 
	C865.209106,604.884094 853.386414,604.884094 841.170410,604.884094 
	C841.170410,567.423706 841.170410,529.554199 841.170410,491.153931 
	C856.805786,491.499481 872.657898,489.501343 888.086548,494.143280 
	C903.673340,498.832825 913.019653,509.601746 916.583374,525.271606 
	C920.179993,541.086426 920.216125,556.971985 916.179810,572.764465 
	C911.596436,590.697632 899.659485,600.593079 881.859985,604.038818 
	C880.552856,604.291870 879.244263,604.537659 877.484070,604.835449 
z"/>
<path fill="#030303" opacity="1.000000" stroke="none" 
	d="
M521.813965,529.812622 
	C524.947327,520.103760 527.935852,510.768036 531.047791,501.473633 
	C531.420776,500.359680 532.463989,499.470123 533.196533,498.476562 
	C534.042969,499.316284 535.336487,500.008270 535.670044,501.017517 
	C542.756897,522.455933 549.735779,543.929993 556.845337,565.733154 
	C541.178406,565.733154 525.794739,565.733154 510.055359,565.733154 
	C513.956299,553.835449 517.831360,542.016846 521.813965,529.812622 
z"/>
<path fill="#030303" opacity="1.000000" stroke="none" 
	d="
M680.721191,554.656372 
	C686.550598,536.740845 692.223572,519.191833 698.008362,501.679718 
	C698.409302,500.465912 699.641418,499.526672 700.487061,498.459747 
	C701.263733,499.398315 702.406860,500.215790 702.762878,501.293335 
	C709.748840,522.433044 716.644348,543.602600 723.544189,564.770630 
	C723.640381,565.065613 723.556213,565.419373 723.556213,565.878723 
	C708.214294,565.878723 692.907654,565.878723 677.091431,565.878723 
	C678.300171,562.132812 679.445862,558.582275 680.721191,554.656372 
z"/>
</svg>